<svg width="14" height="16" viewBox="0 0 14 16" fill="none" xmlns="http://www.w3.org/2000/svg">
<path d="M2 1C0.896875 1 0 1.89688 0 3V13C0 14.1031 0.896875 15 2 15H12C13.1031 15 14 14.1031 14 13V3C14 1.89688 13.1031 1 12 1H2ZM4 7C4.55313 7 5 7.44687 5 8V11C5 11.5531 4.55313 12 4 12C3.44687 12 3 11.5531 3 11V8C3 7.44687 3.44687 7 4 7ZM6 5C6 4.44687 6.44687 4 7 4C7.55313 4 8 4.44687 8 5V11C8 11.5531 7.55313 12 7 12C6.44687 12 6 11.5531 6 11V5ZM10 9C10.5531 9 11 9.44687 11 10V11C11 11.5531 10.5531 12 10 12C9.44687 12 9 11.5531 9 11V10C9 9.44687 9.44687 9 10 9Z" fill="black"/>
</svg>
