<svg width="16" height="16" viewBox="0 0 16 16" fill="none" xmlns="http://www.w3.org/2000/svg">
<path d="M9.79375 1.02815C10.6062 1.19065 11.1344 1.98128 10.9719 2.79378L10.9 3.15003C10.7344 3.9844 10.4281 4.77815 10 5.50003H14.5C15.3281 5.50003 16 6.1719 16 7.00003C16 7.57815 15.6719 8.08128 15.1906 8.33128C15.5313 8.60628 15.75 9.02815 15.75 9.50003C15.75 10.2313 15.225 10.8407 14.5344 10.9719C14.6719 11.2 14.75 11.4657 14.75 11.75C14.75 12.4157 14.3156 12.9813 13.7156 13.175C13.7375 13.2782 13.75 13.3875 13.75 13.5C13.75 14.3282 13.0781 15 12.25 15H9.20312C8.60938 15 8.03125 14.825 7.5375 14.4969L6.33437 13.6938C5.5 13.1375 5 12.2 5 11.1969V10V8.50003V7.7219C5 6.8094 5.41562 5.95003 6.125 5.37815L6.35625 5.19378C7.18437 4.53128 7.75 3.60003 7.95625 2.56253L8.02812 2.20628C8.19062 1.39378 8.98125 0.865654 9.79375 1.02815ZM1 6.00003H3C3.55313 6.00003 4 6.4469 4 7.00003V14C4 14.5532 3.55313 15 3 15H1C0.446875 15 0 14.5532 0 14V7.00003C0 6.4469 0.446875 6.00003 1 6.00003Z" fill="white"/>
</svg>
