<svg width="12" height="16" viewBox="0 0 12 16" fill="none" xmlns="http://www.w3.org/2000/svg">
<path d="M10.7062 4.70627C11.0969 4.31565 11.0969 3.68127 10.7062 3.29065C10.3156 2.90002 9.68124 2.90002 9.29062 3.29065L5.99999 6.5844L2.70624 3.29377C2.31562 2.90315 1.68124 2.90315 1.29062 3.29377C0.899994 3.6844 0.899994 4.31877 1.29062 4.7094L4.58437 8.00002L1.29374 11.2938C0.903119 11.6844 0.903119 12.3188 1.29374 12.7094C1.68437 13.1 2.31874 13.1 2.70937 12.7094L5.99999 9.41565L9.29374 12.7063C9.68437 13.0969 10.3187 13.0969 10.7094 12.7063C11.1 12.3156 11.1 11.6813 10.7094 11.2906L7.41562 8.00002L10.7062 4.70627Z" fill="black"/>
</svg>
